<svg fill="#ababab" width="18" height="18" id="Layer_1" data-name="Layer 1" xmlns="http://www.w3.org/2000/svg" viewBox="0 0 576 361.1"><path d="M232,237.2c31.8-15.2,48.4-38.2,48.4-74,0-70.6-52.6-87.8-113.3-87.8H0V429.8H171.8c64.4,0,124.9-30.9,124.9-102.9,0-44.5-21.1-77.4-64.7-89.7ZM77.9,135.9H151c28.1,0,53.4,7.9,53.4,40.5,0,30.1-19.7,42.2-47.5,42.2h-79Zm83.3,233.7H77.9V272h84.9c34.3,0,56,14.3,56,50.6s-25.9,47-57.6,47ZM519.7,128.9H376V94H519.7v34.9ZM576,305.2C576,229.3,531.6,166,451.1,166c-78.2,0-131.3,58.8-131.3,135.8,0,79.9,50.3,134.7,131.3,134.7,61.3,0,101-27.6,120.1-86.3H509c-6.7,21.9-34.3,33.5-55.7,33.5-41.3,0-63-24.2-63-65.3H575.4C575.7,314.2,576,309.7,576,305.2ZM390.4,274c2.3-33.7,24.7-54.8,58.5-54.8,35.4,0,53.2,20.8,56.2,54.8Z" transform="translate(0 -75.4)"/></svg>